PathFileType	4	(X/Y/Z)	jw_ngait_og1_rotated.trc
DataRate	CameraRate	NumFrames	NumMarkers	Units	OrigDataRate	OrigDataStartFrame	OrigNumFrames
120.000000	120.000000	6	56	mm	120.000000	123	327
Frame#	Time	Sternum			Neck			RShoulder			LShoulder			Xiphoid			Thoracic			RAsis			LAsis			RPsis			LPsis			Lumbar			RElbow			RWrist			RRadius			RUlna			LElbow			LWrist			LUlna			LRadius			LThighSuperior			LThighInferior			LThighLateral			LPatella			LShankSuperior			LShankInferior			LShankLateral			RThighSuperior			RThighInferior			RThighLateral			RPatella			RShankSuperior			RShankInferior			RShankLateral			RHeel			RToe			RMidfootMedial			RMidfootLateral			RHindfoot			RMidfootSuperior			RToeMedial			RToeLateral			LHeel			LToe			LMidfootMedial			LMidfootLateral			LHindfoot			LMidfootSuperior			LToeMedial			LToeLateral			LShoulderCenter			Oglobal			RShoulderCenter			Sacral			Xglobal			Yglobal			Zglobal			
		X1	Y1	Z1	X2	Y2	Z2	X3	Y3	Z3	X4	Y4	Z4	X5	Y5	Z5	X6	Y6	Z6	X7	Y7	Z7	X8	Y8	Z8	X9	Y9	Z9	X10	Y10	Z10	X11	Y11	Z11	X12	Y12	Z12	X13	Y13	Z13	X14	Y14	Z14	X15	Y15	Z15	X16	Y16	Z16	X17	Y17	Z17	X18	Y18	Z18	X19	Y19	Z19	X20	Y20	Z20	X21	Y21	Z21	X22	Y22	Z22	X23	Y23	Z23	X24	Y24	Z24	X25	Y25	Z25	X26	Y26	Z26	X27	Y27	Z27	X28	Y28	Z28	X29	Y29	Z29	X30	Y30	Z30	X31	Y31	Z31	X32	Y32	Z32	X33	Y33	Z33	X34	Y34	Z34	X35	Y35	Z35	X36	Y36	Z36	X37	Y37	Z37	X38	Y38	Z38	X39	Y39	Z39	X40	Y40	Z40	X41	Y41	Z41	X42	Y42	Z42	X43	Y43	Z43	X44	Y44	Z44	X45	Y45	Z45	X46	Y46	Z46	X47	Y47	Z47	X48	Y48	Z48	X49	Y49	Z49	X50	Y50	Z50	X51	Y51	Z51	X52	Y52	Z52	X53	Y53	Z53	X54	Y54	Z54	X55	Y55	Z55	X56	Y56	Z56	

123.00000	1.97500	398.10941	1345.59644	-162.46756	527.07281	1464.41931	-162.38078	475.86530	1405.11438	-340.48102	473.16132	1405.94751	24.81205	404.09702	1229.21863	-156.32716	623.49139	1275.36035	-150.62833	420.24600	1007.37598	-290.77441	436.18085	988.78174	-16.82504	640.28491	988.46588	-181.16730	641.96790	984.87146	-121.37220	635.11920	1056.39111	-155.25362	567.44635	1082.46460	-426.96207	487.32077	827.50079	-429.86963	466.57657	834.17877	-396.51532	534.36310	827.12146	-421.81186	526.40570	1080.22437	97.33370	451.59958	815.86829	94.65906	502.22318	812.69110	93.26046	441.13315	839.78583	57.97460	444.96744	814.39044	22.88142	340.05994	586.05554	-2.49269	326.21127	709.16815	-30.76150	295.30905	493.20770	-57.05996	397.02917	458.33951	-9.82855	590.17188	290.44986	-35.45479	475.09552	358.14813	-84.91951	465.60132	810.33679	-322.99936	419.18726	577.74811	-269.62604	383.01187	675.25830	-251.32079	386.85333	514.70117	-220.29231	488.85193	388.70535	-287.71286	476.68054	156.95961	-235.38548	435.89627	259.31631	-197.53687	570.88434	49.00260	-192.68062	273.38693	44.79966	-237.44351	350.26282	36.07264	-172.76099	379.38184	41.85242	-283.75726	459.11118	23.38832	-272.91614	399.72522	107.27949	-215.52840	310.09930	36.23450	-189.30144	319.24152	41.48299	-277.07019	749.16675	265.97729	-66.22641	534.42065	56.90383	-71.67523	612.69781	109.67319	-127.09969	616.82745	112.49317	-2.55938	697.66156	172.97249	-10.24661	585.76410	189.85275	-65.77015	573.41864	80.92522	-108.71444	578.03754	83.32528	-20.50609	499.03958	1365.91980	13.88647	0.00000	0.00000	0.00000	499.82080	1365.80542	-338.12506	641.12640	986.66870	-151.26974	200.00000	0.00000	0.00000	0.00000	0.00000	-200.00000	0.00000	200.00000	0.00000
124.00000	1.98333	387.66266	1345.69226	-161.72627	516.23859	1465.05493	-162.33554	464.05038	1405.78772	-340.02127	463.41034	1406.26990	25.05603	393.91605	1229.52332	-155.70834	613.07306	1276.07324	-151.24236	411.58862	1007.17212	-290.43027	427.03537	989.33344	-17.04180	630.46155	989.31580	-181.81664	632.29358	985.63464	-121.95993	626.07892	1057.06091	-154.95982	555.62512	1083.52051	-427.93866	475.29016	828.64795	-430.96490	454.72296	835.12744	-397.57520	522.65631	828.17468	-423.28296	519.22589	1080.77039	96.84858	446.45679	815.97595	93.43258	497.06921	812.78015	92.01106	435.95477	839.64496	57.23402	433.12457	816.32007	22.34941	323.13187	590.38257	-3.54319	312.39105	713.41559	-32.58511	276.59799	498.51157	-57.80950	376.75635	460.82370	-10.83766	564.66174	286.70239	-35.96275	451.86636	357.22699	-86.01153	457.75299	810.91626	-323.40781	414.24677	577.29407	-269.69916	376.99939	674.26770	-251.62267	383.34586	513.62018	-220.22945	486.29776	388.99197	-287.65778	475.74847	157.20390	-235.15836	434.24097	258.93823	-197.55823	571.35956	49.42469	-193.37338	273.27914	44.62878	-237.49832	350.89188	35.63065	-172.36032	379.44135	41.45568	-283.50208	458.88110	23.43652	-273.11404	399.52112	107.12003	-215.45792	309.84970	35.92000	-189.25232	319.19614	41.38822	-277.10544	723.36505	253.50037	-68.24519	493.24728	60.94458	-67.99621	576.11084	105.23366	-123.86418	581.20850	111.41728	0.51859	666.18536	165.72386	-9.04074	555.29248	188.90399	-64.83331	534.72821	79.91422	-105.22896	540.33221	83.91281	-17.10573	489.51196	1366.23035	14.07358	0.00000	0.00000	0.00000	488.30215	1366.44690	-337.93668	631.37756	987.47522	-151.88828	200.00000	0.00000	0.00000	0.00000	0.00000	-200.00000	0.00000	200.00000	0.00000
125.00000	1.99167	377.12674	1345.82971	-161.03642	505.23672	1465.51501	-162.11526	452.51007	1406.45959	-339.65219	453.49310	1406.38330	25.42218	383.48557	1229.74500	-155.13878	602.71454	1276.65320	-151.93343	401.75702	1007.34955	-290.68320	417.82648	989.81335	-17.31532	620.78601	990.00824	-182.48488	622.82758	986.29047	-122.57433	616.45953	1057.72412	-155.73203	543.72906	1084.48462	-428.76315	463.28561	829.80548	-432.01730	442.39789	836.07208	-398.52731	510.79745	829.13208	-424.50854	512.11633	1081.17871	96.19735	441.32407	815.84528	92.42425	492.25467	812.98871	90.80595	430.59256	839.45483	56.51371	422.13181	818.02020	21.41687	307.11725	594.89716	-4.34582	298.78369	717.88965	-33.76839	258.11520	504.36871	-58.74097	357.21985	463.68097	-11.32600	538.65057	282.60690	-36.22702	428.19614	356.41394	-86.37017	449.79636	811.38605	-323.64563	409.77145	576.77051	-269.68091	371.11386	673.12671	-251.10561	378.91852	513.11346	-220.53139	483.66299	389.05386	-287.36060	475.05835	157.26509	-235.14764	431.97174	258.91431	-197.30930	571.52094	49.71292	-193.53708	273.21561	44.41755	-237.56592	351.12875	35.26060	-172.17712	379.48724	41.14720	-283.36453	458.85629	23.43691	-273.09302	399.25574	106.95953	-215.39369	309.72284	35.82272	-189.21085	319.09534	41.33859	-277.03900	696.42920	240.10507	-70.56258	453.70096	63.63833	-63.65665	539.14697	100.36995	-120.52950	545.59143	110.18650	3.55676	634.08112	158.34601	-8.21454	524.56512	187.14323	-64.14555	495.94861	79.05253	-101.58265	502.85675	84.59922	-13.50876	479.69247	1366.41943	14.34034	0.00000	0.00000	0.00000	476.91556	1367.16895	-337.66031	621.80676	988.14935	-152.52960	200.00000	0.00000	0.00000	0.00000	0.00000	-200.00000	0.00000	200.00000	0.00000
126.00000	2.00000	366.75421	1345.89514	-160.17325	494.41772	1465.92908	-161.91484	441.05530	1406.94128	-339.26410	443.90793	1406.44666	25.77674	373.20129	1229.86792	-154.55536	592.49811	1277.24573	-152.56447	391.42719	1007.75256	-290.82520	408.64124	990.13690	-17.56388	610.94446	990.82996	-182.93715	613.16302	986.93073	-123.00496	606.57983	1058.48328	-156.74399	531.94452	1085.15393	-429.62009	450.93198	830.64490	-433.01840	431.25354	836.67853	-399.09296	498.49127	829.80475	-425.70352	505.42752	1081.44312	95.45627	436.11557	816.00653	91.67078	486.68665	813.04163	89.56210	424.74188	839.61078	55.80251	410.59384	820.06073	20.97722	291.21713	599.10223	-5.26646	285.53775	722.04443	-34.80072	239.86984	509.03894	-60.46320	338.60330	466.40747	-11.85094	512.91498	277.94455	-36.74484	404.70428	355.55103	-86.38898	438.60394	810.03925	-322.33661	405.18326	576.05768	-269.66052	365.19095	671.80164	-251.44720	374.78467	512.67377	-220.76700	481.22318	389.15039	-287.19553	474.46344	157.28157	-235.09622	431.01175	259.12881	-197.05986	571.33197	49.83005	-193.44084	273.21072	44.22264	-237.58751	350.94604	34.89410	-172.35098	379.41077	41.10810	-283.49341	458.90649	23.49041	-273.17142	399.03378	106.77419	-215.33388	309.63663	35.69022	-189.15898	319.10855	41.22639	-277.07761	668.18604	226.14516	-72.49687	414.85178	65.88905	-58.89629	501.58304	96.11447	-118.27639	510.25684	107.43430	5.54575	601.94006	149.58566	-8.00040	493.54001	184.56371	-63.16751	457.04434	78.15468	-97.81997	465.45013	85.15500	-9.89988	470.15131	1366.60620	14.70034	0.00000	0.00000	0.00000	465.56949	1367.75317	-337.28036	612.05371	988.88037	-152.97105	200.00000	0.00000	0.00000	0.00000	0.00000	-200.00000	0.00000	200.00000	0.00000
127.00000	2.00833	356.23123	1345.82422	-159.43298	483.68970	1466.22034	-161.63930	429.66843	1407.32080	-338.63974	434.18015	1406.35205	26.12168	362.86166	1229.89050	-153.99345	582.21240	1277.63782	-153.03951	381.31198	1007.70569	-290.97571	399.35477	990.46790	-17.82408	601.31390	991.46143	-183.33755	603.68445	987.40576	-123.39433	596.74634	1059.05103	-157.62569	519.93146	1085.65894	-430.34875	438.57263	831.30493	-433.85583	419.36389	837.17029	-399.92227	486.20233	830.37531	-426.76926	498.90891	1081.69714	94.78370	430.86670	815.92493	90.92109	481.43805	813.16608	88.44656	419.15973	839.28687	55.02156	399.29178	821.82385	20.82911	276.09457	603.03595	-6.11782	272.77576	726.15649	-35.53683	223.13759	515.15863	-60.29729	320.68054	468.97073	-12.32960	486.33401	272.77710	-37.11700	382.72638	353.62671	-85.09725	425.25552	806.93524	-318.34735	400.85858	575.61584	-269.62555	358.88556	670.84613	-251.32272	371.14441	512.00397	-220.70305	479.01862	389.28796	-286.98370	473.73102	157.36359	-234.59294	428.86090	258.40311	-197.13971	571.00342	49.70875	-192.98976	272.93436	43.94328	-237.39906	350.57837	34.88262	-172.23387	379.23462	40.76770	-283.34497	458.70468	23.34125	-272.65442	398.95142	106.56239	-215.31746	309.58792	35.62190	-189.16611	319.05573	41.09101	-277.08987	638.90009	211.82445	-74.36751	376.08966	68.42783	-53.97545	463.71350	91.74815	-115.00790	474.53452	105.70150	8.37566	568.62390	141.57855	-7.34243	461.87762	181.90939	-62.19557	417.93729	77.10494	-94.22919	427.74707	85.49008	-6.86357	460.37613	1366.53845	14.99592	0.00000	0.00000	0.00000	454.18994	1368.13916	-336.95847	602.49915	989.43359	-153.36594	200.00000	0.00000	0.00000	0.00000	0.00000	-200.00000	0.00000	200.00000	0.00000
128.00000	2.01667	345.67786	1345.77454	-158.75629	472.89090	1466.37708	-161.31264	418.53754	1407.70862	-338.24765	424.39877	1406.36670	26.55276	352.55084	1229.82043	-153.53671	571.81006	1277.85315	-153.44640	371.07782	1007.69202	-291.06848	389.91248	990.53406	-18.13470	591.37207	991.90045	-183.73862	594.02917	987.86279	-123.73293	586.77118	1059.51257	-158.41364	508.10764	1086.01465	-431.03384	426.24326	831.87744	-434.58899	407.24539	837.66650	-400.39682	474.06372	830.75726	-427.78372	492.36237	1081.81995	93.99493	425.38617	815.79315	90.24155	476.79852	813.61505	87.59920	413.14288	839.46802	54.38369	388.31921	823.49152	20.77427	261.41324	606.86523	-6.94245	260.42883	730.06305	-36.07722	206.59988	520.81012	-60.85637	303.32910	471.34451	-12.63350	459.68353	267.43066	-37.50816	359.39938	351.71002	-84.63538	415.44345	806.51221	-317.71420	396.49869	574.90308	-269.45093	353.14572	669.67426	-251.51190	367.82489	510.65039	-220.49927	476.43832	389.38248	-286.65732	472.92767	157.19640	-234.44179	427.28458	257.94519	-197.00613	571.02277	49.95332	-193.01393	272.83057	43.72934	-237.33900	350.62732	34.77121	-172.20108	379.25537	40.54895	-283.32507	458.60657	23.31755	-272.65131	398.86447	106.47550	-215.39452	309.08582	35.76909	-189.08823	319.09088	40.96085	-277.12112	608.39032	197.08292	-75.94521	337.46466	70.86378	-50.31294	424.69946	89.75500	-114.65802	437.22998	103.86321	8.54604	534.57666	132.40413	-7.64768	429.13699	180.17085	-62.54639	379.13757	76.62769	-90.99973	390.64142	85.67243	-3.68576	450.42929	1366.49133	15.30874	0.00000	0.00000	0.00000	442.94073	1368.44861	-336.61856	592.70062	989.88159	-153.73578	200.00000	0.00000	0.00000	0.00000	0.00000	-200.00000	0.00000	200.00000	0.00000
